<svg width="659" height="659" viewBox="0 0 659 659" fill="none" xmlns="http://www.w3.org/2000/svg">
<path d="M626.352 329.5C626.352 251.28 595.48 176.221 540.445 120.638C485.41 65.0539 410.661 33.4383 332.445 32.6623C254.229 31.8863 178.867 62.0127 122.74 116.493C66.6137 170.974 34.258 245.406 32.7061 323.61C31.1542 401.815 60.5315 477.472 114.453 534.136C168.374 590.801 242.481 623.893 320.666 626.221C398.852 628.548 474.796 599.923 531.993 546.567C589.189 493.21 623.015 419.435 626.119 341.277L605.719 340.467C602.829 413.25 571.329 481.951 518.066 531.638C464.803 581.325 394.082 607.981 321.274 605.814C248.466 603.646 179.455 572.83 129.243 520.062C79.0299 467.295 51.673 396.842 53.1181 324.016C54.5633 251.189 84.6937 181.877 136.96 131.143C189.227 80.4092 259.406 52.3547 332.242 53.0773C405.079 53.7999 474.687 83.2412 525.937 135.002C577.187 186.763 605.936 256.66 605.936 329.5H626.352Z" fill="url(#paint0_linear)" fill-opacity="0.5"/>
<path d="M659 329.5C659 242.677 624.732 159.364 563.645 97.6669C502.557 35.9703 419.587 0.877539 332.769 0.0162145C245.95 -0.84511 162.301 32.5946 100.001 93.0671C37.7015 153.54 1.78742 236.157 0.0648565 322.963C-1.65771 409.768 30.9505 493.746 90.802 556.642C150.653 619.539 232.911 656.27 319.695 658.854C406.479 661.438 490.776 629.664 554.263 570.44C617.75 511.215 655.296 429.326 658.741 342.572L649.593 342.209C646.245 426.553 609.742 506.167 548.018 563.746C486.295 621.325 404.34 652.216 319.967 649.704C235.594 647.192 155.622 611.48 97.4336 550.331C39.245 489.182 7.54274 407.538 9.21744 323.144C10.8921 238.751 45.8085 158.428 106.377 99.6358C166.946 40.8434 248.272 8.33276 332.678 9.17015C417.084 10.0075 497.749 44.1253 557.139 104.108C616.53 164.09 649.846 245.09 649.846 329.5H659Z" fill="url(#paint1_linear)" fill-opacity="0.25"/>
<path d="M558.639 329.5C558.639 456.05 456.05 558.638 329.5 558.638C202.95 558.638 100.362 456.05 100.362 329.5C100.362 202.95 202.95 100.361 329.5 100.361C456.05 100.361 558.639 202.95 558.639 329.5ZM204.779 329.5C204.779 398.382 260.619 454.221 329.5 454.221C398.382 454.221 454.221 398.382 454.221 329.5C454.221 260.618 398.382 204.779 329.5 204.779C260.619 204.779 204.779 260.618 204.779 329.5Z" fill="url(#paint2_linear)" fill-opacity="0.7"/>
<defs>
<linearGradient id="paint0_linear" x1="146.858" y1="32.6477" x2="748.848" y2="363.859" gradientUnits="userSpaceOnUse">
<stop stop-color="#002476"/>
<stop offset="0.229167" stop-color="#063D8D"/>
<stop offset="0.526042" stop-color="#05579C"/>
<stop offset="0.990402" stop-color="#00A6E6"/>
</linearGradient>
<linearGradient id="paint1_linear" x1="126.771" y1="4.56608e-05" x2="794.968" y2="367.637" gradientUnits="userSpaceOnUse">
<stop stop-color="#002476"/>
<stop offset="0.229167" stop-color="#063D8D"/>
<stop offset="0.526042" stop-color="#05579C"/>
<stop offset="0.990402" stop-color="#00A6E6"/>
</linearGradient>
<linearGradient id="paint2_linear" x1="188.52" y1="100.361" x2="653.192" y2="356.021" gradientUnits="userSpaceOnUse">
<stop stop-color="#002476"/>
<stop offset="0.229167" stop-color="#063D8D"/>
<stop offset="0.526042" stop-color="#05579C"/>
<stop offset="0.990402" stop-color="#00A6E6"/>
</linearGradient>
</defs>
</svg>
